# xmcd CD database file
#
# Track frame offsets:
#	150
#	16488
#	35773
#	55159
#	77174
#	94954
#	112957
#	134335
#	153014
#	174242
#	192252
#	208165
#	229745
#
# Disc length: 3360 seconds
#
# Revision: 1
# Processed by: cddbd v1.5.1PL0 Copyright (c) Steve Scherf et al.
# Submitted via: CDex 1.51
#
DISCID=a70d1e0d
DTITLE=GO!GO!7188 - 鬣
DYEAR=2005
DGENRE=Punk Rock
TTITLE0=うましかもの
TTITLE1=浮舟
TTITLE2=大人のくすり
TTITLE3=ないものねだり
TTITLE4=ななし
TTITLE5=ナイフ
TTITLE6=雨のち雨のち雨
TTITLE7=無限大
TTITLE8=月と甲羅
TTITLE9=ポラロイド
TTITLE10=サンダーガール
TTITLE11=種
TTITLE12=浮舟 special version
EXTD=YEAR: 2005
EXTT0=
EXTT1=
EXTT2=
EXTT3=
EXTT4=
EXTT5=
EXTT6=
EXTT7=
EXTT8=
EXTT9=
EXTT10=
EXTT11=
EXTT12=
PLAYORDER=
